# Blender v2.79 (sub 0) OBJ File: ''
# www.blender.org
mtllib Triangle.mtl
o Plane
v -1.000000 -0.271367 1.061930
v 1.000000 -0.271367 1.061930
v 0.000000 -0.271367 -2.123861
v -1.000000 0.271366 1.061930
v 1.000000 0.271366 1.061930
v 0.000000 0.271366 -2.123861
vn 0.0000 -1.0000 0.0000
vn 0.0000 1.0000 0.0000
vn 0.9541 0.0000 -0.2995
vn -0.9541 0.0000 -0.2995
vn 0.0000 0.0000 1.0000
usemtl None
s off
f 1//1 3//1 2//1
f 4//2 5//2 6//2
f 2//3 3//3 6//3 5//3
f 3//4 1//4 4//4 6//4
f 1//5 2//5 5//5 4//5
